<svg width="22" height="15" viewBox="0 0 22 15" fill="none" xmlns="http://www.w3.org/2000/svg">
<path d="M13.7519 -9.53674e-07V14H10.5119V8.26H4.15192V14H0.911922V-9.53674e-07H4.15192V5.52H10.5119V-9.53674e-07H13.7519ZM19.1337 14.16C18.587 14.16 18.127 13.9733 17.7537 13.6C17.3804 13.2267 17.1937 12.76 17.1937 12.2C17.1937 11.6267 17.3804 11.1667 17.7537 10.82C18.127 10.46 18.587 10.28 19.1337 10.28C19.6804 10.28 20.1404 10.46 20.5137 10.82C20.887 11.1667 21.0737 11.6267 21.0737 12.2C21.0737 12.76 20.887 13.2267 20.5137 13.6C20.1404 13.9733 19.6804 14.16 19.1337 14.16Z" fill="#EBCB80"/>
</svg>
